<svg version="1.0" xmlns="http://www.w3.org/2000/svg" viewBox="0 0 340 250" style="display:block; width:100%; height:100%;">
  <g fill="#E5F1E7" class="icon-text-wrapper icon-svg-group iconsvg">
    <g transform="translate(46.93 84.1)" class="iconsvg-imagesvg">
      <path class="image-rect" fill="none" d="M0 0h60v81.801H0z"/>
      <svg width="60" height="81.801" class="image-svg-svg primary" style="overflow:visible">
        <svg xmlns="http://www.w3.org/2000/svg" viewBox="-0.006 -0.006 82.657 112.691">
          <g data-name="图层 2">
            <g data-name="Layer 1">
              <path d="M62.73 29.74A12 12 0 0 0 72 31.95a12.38 12.38 0 0 0 8.25-5 12 12 0 0 0 2.21-9.29 12 12 0 0 0-4.86-8.25 50 50 0 0 0-9.72-5.56L54.15 25.7a23.24 23.24 0 0 1 8.58 4.04zM72 80.73a12.46 12.46 0 0 0-9.29 2.32A23.5 23.5 0 0 1 54.16 87l13.72 21.84a50 50 0 0 0 9.72-5.56A11.64 11.64 0 0 0 82.47 95a12.05 12.05 0 0 0-2.21-9.29A12.39 12.39 0 0 0 72 80.73z" fill="#39b54a"/>
              <path d="M48.9 87.59h-.35a23.4 23.4 0 0 1-23.46-23.47V48.56a22.48 22.48 0 0 1 6.85-16.5 22.43 22.43 0 0 1 16.61-7h.35a22.87 22.87 0 0 1 5.25.61L67.88 3.85A47.47 47.47 0 0 0 48.9 0h-.35a46.49 46.49 0 0 0-34.26 14.29A46.74 46.74 0 0 0 0 48.56v15.56a46.49 46.49 0 0 0 14.29 34.27 46.49 46.49 0 0 0 34.27 14.29h.35a47.47 47.47 0 0 0 19-3.85L54.16 87a23.43 23.43 0 0 1-5.26.59z" fill="#E5F1E7"/>
            </g>
          </g>
        </svg>
      </svg>
    </g>
    <g>
      <path d="M129.85 123.63v3.84q-6.34.56-10.52.56-2.79 0-4.09-1.3-1.31-1.31-1.31-4.1v-9.1q0-2.98 1.35-4.33 1.35-1.36 4.33-1.36h10.24v3.99h-9.1q-1.7 0-1.7 1.7v9.1q0 .66.38 1.04t.98.38q.6 0 1.31-.01l1.48-.04 1.55-.06q.78-.03 2.02-.11 1.23-.09 3.08-.2Zm17.35-6.69v6.54q0 2.14-1.21 3.35-1.21 1.2-3.34 1.2h-6.54q-2.14 0-3.34-1.2-1.21-1.21-1.21-3.35v-6.54q0-2.13 1.21-3.34 1.2-1.21 3.34-1.21h6.54q2.13 0 3.34 1.21t1.21 3.34Zm-4.98 6.12v-5.69q0-1.14-1.14-1.14h-3.41q-1.14 0-1.14 1.14v5.69q0 1.14 1.14 1.14h3.41q1.14 0 1.14-1.14Zm16.92-6.54h-.99q-1.51 0-3.42.57v10.66h-4.97v-15.07h4.4l.29 1.42q1.34-.88 2.74-1.29 1.41-.42 2.38-.42h1.28q1.93 0 3.1 1.17 1.16 1.17 1.16 3.1v11.09h-4.97v-10.24q0-.42-.29-.71-.28-.28-.71-.28Zm17.92 0h-1q-1.51 0-3.41.57v10.66h-4.98v-15.07h4.41l.28 1.42q1.34-.88 2.75-1.29 1.41-.42 2.37-.42h1.28q1.94 0 3.1 1.17 1.17 1.17 1.17 3.1v11.09h-4.98v-10.24q0-.42-.28-.71-.29-.28-.71-.28Zm16.91-.57h-2.55q-1.14 0-1.14 1.14v1.56h4.83v-1.56q0-1.14-1.14-1.14Zm5.55 7.96v3.56q-5.49.56-9.95.56-1.94 0-3.1-1.16-1.17-1.17-1.17-3.1v-6.83q0-2.13 1.21-3.34t3.34-1.21h5.69q2.13 0 3.34 1.21t1.21 3.34v5.26h-9.81v1.14q0 .43.28.71.29.29.71.29 2.82 0 8.25-.43Zm16.49-.14v3.7q-5.31.56-9.38.56-1.93 0-3.1-1.16-1.17-1.17-1.17-3.1v-6.54q0-2.13 1.21-3.34t3.34-1.21h9.1v3.84h-7.53q-1.14 0-1.14 1.14v5.54q0 .43.28.71.29.29.72.29 2.55 0 7.67-.43Zm12.8.28v3.7q-2.76.28-5.4.28-1.94 0-3.1-1.16-1.17-1.17-1.17-3.1v-7.25h-1.71v-3.84h1.71l.57-3.41h4.41v3.41h3.55v3.84h-3.55v6.54q0 .42.28.71.29.28.71.28h3.7Zm19.62-16.21v19.91h-5.4l-6.83-11.94v11.94h-5.12v-19.91h5.41l6.82 11.95v-11.95h5.12Zm18.48 9.1v6.54q0 2.14-1.21 3.35-1.2 1.2-3.34 1.2h-6.54q-2.13 0-3.34-1.2-1.21-1.21-1.21-3.35v-6.54q0-2.13 1.21-3.34t3.34-1.21h6.54q2.14 0 3.34 1.21 1.21 1.21 1.21 3.34Zm-4.97 6.12v-5.69q0-1.14-1.14-1.14h-3.41q-1.14 0-1.14 1.14v5.69q0 1.14 1.14 1.14h3.41q1.14 0 1.14-1.14Zm20.61-10.38 2.56 9.1 2.56-9.1h5.4l-4.69 15.07h-5.26l-2.84-9.1-2.85 9.1h-5.26l-4.69-15.07h5.4l2.56 9.1 2.56-9.1h4.55Z" data-gra="path-name" class="tp-name iconsvg-namesvg"/>
      <path d="M114.172 134.15v6.36h2.03c.36 0 .68-.04.98-.12.3-.07.55-.19.77-.35.21-.15.37-.34.49-.58.12-.23.18-.5.18-.81 0-.44-.13-.79-.39-1.04s-.62-.41-1.09-.49v-.03c.38-.1.65-.28.84-.53.18-.26.27-.54.27-.86 0-.28-.06-.52-.16-.71-.11-.2-.26-.36-.45-.48a1.96 1.96 0 0 0-.69-.28c-.27-.05-.56-.08-.89-.08Zm1.75 2.71h-.94v-2.07h.98c.5 0 .87.07 1.12.22.25.16.37.41.37.76 0 .35-.12.62-.35.81-.24.19-.63.28-1.18.28Zm.16 3.01h-1.1v-2.41h1.1c.57 0 1 .1 1.29.28.3.18.45.47.45.87 0 .43-.15.75-.46.95-.3.21-.73.31-1.28.31Zm4.6-2.71v-2.36h1.07c.5 0 .88.08 1.14.25.27.17.4.46.4.88s-.13.72-.4.93c-.26.2-.64.3-1.14.3Zm2.69 3.35h.91l-1.61-2.77c.43-.11.78-.32 1.04-.62.26-.29.39-.69.39-1.19 0-.33-.06-.61-.17-.83-.11-.23-.26-.41-.46-.56-.2-.14-.43-.24-.71-.3-.27-.06-.57-.09-.89-.09h-1.99v6.36h.8v-2.69h1.16Zm2.14-6.36v6.36h.81v-6.36Zm2.55 0v6.36h.77v-3.33c0-.33-.01-.67-.03-1-.03-.33-.05-.66-.08-.99h.04l.69 1.31 2.31 4.01h.83v-6.36h-.76v3.28c0 .34.01.68.03 1.03.02.34.05.68.06 1h-.03l-.69-1.32-2.3-3.99Zm5.91 3.18c0 .52.07.98.21 1.39.15.41.34.76.6 1.04.25.28.55.49.9.64.35.15.73.23 1.15.23.43 0 .81-.07 1.15-.21.34-.14.62-.32.82-.53v-2.68h-2.08v.67h1.35v1.66c-.13.12-.3.21-.5.28-.21.06-.42.1-.65.1-.34 0-.64-.06-.91-.19-.26-.12-.48-.29-.66-.52-.17-.23-.31-.5-.4-.82-.1-.32-.14-.68-.14-1.08s.05-.75.15-1.07c.1-.32.24-.59.42-.81.18-.22.4-.39.66-.51s.55-.18.87-.18c.32 0 .59.05.8.17.21.11.4.25.56.42l.45-.51c-.18-.2-.42-.38-.72-.54-.29-.17-.66-.25-1.1-.25-.43 0-.82.08-1.17.23-.36.15-.67.37-.93.65-.26.29-.46.63-.61 1.04-.15.41-.22.87-.22 1.38Zm6.36-3.18v6.36h.8v-6.36Zm2.55 0v6.36h.76v-3.33c0-.33-.01-.67-.03-1-.02-.33-.05-.66-.07-.99h.03l.69 1.31 2.31 4.01h.84v-6.36h-.77v3.28c0 .34.01.68.03 1.03.03.34.05.68.07 1h-.04l-.69-1.32-2.3-3.99Zm5.9 3.18c0 .52.08.98.22 1.39.14.41.34.76.59 1.04.25.28.55.49.9.64.35.15.74.23 1.16.23.42 0 .81-.07 1.15-.21.33-.14.61-.32.81-.53v-2.68h-2.08v.67h1.35v1.66c-.13.12-.3.21-.5.28-.21.06-.42.1-.65.1-.34 0-.64-.06-.9-.19-.27-.12-.49-.29-.66-.52-.18-.23-.32-.5-.41-.82-.09-.32-.14-.68-.14-1.08s.05-.75.15-1.07c.1-.32.24-.59.42-.81.18-.22.4-.39.66-.51s.55-.18.87-.18c.33 0 .59.05.8.17.21.11.4.25.56.42l.46-.51c-.19-.2-.43-.38-.73-.54-.29-.17-.66-.25-1.1-.25-.42 0-.81.08-1.17.23-.36.15-.66.37-.93.65-.26.29-.46.63-.61 1.04-.14.41-.22.87-.22 1.38Zm9.35.72v2.46h.81v-2.46l1.91-3.9h-.84l-.82 1.79c-.09.23-.2.46-.31.69-.11.23-.22.46-.33.7h-.04c-.11-.24-.21-.47-.31-.7-.09-.23-.19-.46-.3-.69l-.82-1.79h-.87Zm5.8 2.58c.4 0 .76-.08 1.1-.24.33-.15.62-.37.86-.66.24-.29.43-.64.56-1.05.14-.41.2-.87.2-1.38 0-.51-.06-.96-.2-1.36-.13-.41-.32-.75-.56-1.03-.24-.28-.53-.5-.86-.65-.34-.15-.7-.23-1.1-.23-.4 0-.77.07-1.1.22-.34.15-.62.37-.86.65s-.43.62-.56 1.03c-.13.4-.2.86-.2 1.37 0 .51.07.97.2 1.38.13.41.32.76.56 1.05.24.29.52.51.86.66.33.16.7.24 1.1.24Zm0-.71c-.29 0-.55-.06-.77-.19-.23-.12-.43-.3-.6-.52-.16-.23-.29-.51-.38-.83-.09-.32-.14-.68-.14-1.08s.05-.75.14-1.07c.09-.31.22-.58.38-.8.17-.22.37-.39.6-.51.22-.12.48-.18.77-.18.28 0 .54.06.77.18.23.12.42.29.59.51.16.22.29.49.38.8.09.32.14.67.14 1.07s-.05.76-.14 1.08c-.09.32-.22.6-.38.83-.17.22-.36.4-.59.52-.23.13-.49.19-.77.19Zm4.06-5.77v3.73c0 .51.06.94.18 1.29.11.35.27.63.48.85.2.22.44.37.72.47a2.99 2.99 0 0 0 1.81 0c.28-.1.52-.25.72-.47.21-.22.37-.5.48-.85.12-.35.18-.78.18-1.29v-3.73h-.78v3.75c0 .38-.04.7-.11.96-.08.26-.19.47-.32.62-.14.16-.3.27-.48.34-.18.06-.38.1-.59.1-.21 0-.4-.04-.58-.1-.18-.07-.34-.18-.47-.34-.14-.15-.24-.36-.32-.62-.08-.26-.11-.58-.11-.96v-3.75Zm7.88 3.18c0 .52.07.98.21 1.39.13.41.33.76.58 1.04.25.28.54.49.88.64.34.15.71.23 1.11.23.41 0 .77-.08 1.09-.25.31-.16.6-.38.85-.68l-.45-.49c-.21.23-.43.4-.66.52-.23.13-.5.19-.81.19-.3 0-.58-.06-.82-.19-.24-.12-.45-.29-.61-.52-.17-.23-.3-.5-.4-.82-.09-.32-.14-.68-.14-1.08s.05-.75.15-1.07c.09-.32.23-.59.4-.81a1.829 1.829 0 0 1 1.46-.69c.27 0 .51.05.71.16.21.11.39.25.56.43l.46-.51c-.19-.21-.43-.39-.72-.55-.29-.16-.63-.24-1.02-.24-.41 0-.78.08-1.13.23-.35.15-.65.37-.9.65-.25.29-.45.63-.59 1.04-.14.41-.21.87-.21 1.38Zm5.9-3.18v6.36h3.59v-.69h-2.78v-5.67Zm6.81 6.48c.41 0 .77-.08 1.11-.24.33-.15.62-.37.86-.66.24-.29.43-.64.56-1.05.13-.41.2-.87.2-1.38 0-.51-.07-.96-.2-1.36-.13-.41-.32-.75-.56-1.03-.24-.28-.53-.5-.86-.65-.34-.15-.7-.23-1.11-.23-.4 0-.76.07-1.1.22-.33.15-.62.37-.85.65-.24.28-.43.62-.56 1.03-.14.4-.2.86-.2 1.37 0 .51.06.97.2 1.38.13.41.32.76.56 1.05.23.29.52.51.85.66.34.16.7.24 1.1.24Zm0-.71c-.28 0-.54-.06-.77-.19-.23-.12-.42-.3-.59-.52-.16-.23-.29-.51-.38-.83-.09-.32-.14-.68-.14-1.08s.05-.75.14-1.07c.09-.31.22-.58.38-.8.17-.22.36-.39.59-.51.23-.12.49-.18.77-.18.29 0 .55.06.78.18.23.12.42.29.59.51.16.22.29.49.38.8.09.32.14.67.14 1.07s-.05.76-.14 1.08c-.09.32-.22.6-.38.83-.17.22-.36.4-.59.52-.23.13-.49.19-.78.19Zm4.12-.8-.49.57c.28.29.61.52.99.68.38.17.8.26 1.24.26.34 0 .64-.05.91-.14.26-.1.49-.23.67-.39.19-.17.34-.36.44-.58.1-.22.15-.46.15-.71 0-.23-.04-.44-.11-.61-.06-.18-.16-.34-.27-.47-.12-.13-.26-.25-.42-.35-.16-.1-.33-.19-.51-.27l-.9-.38c-.13-.05-.26-.11-.38-.17-.13-.06-.24-.14-.34-.22a.776.776 0 0 1-.34-.67c0-.29.11-.52.32-.68.22-.17.51-.25.86-.25.3 0 .57.05.8.16.24.11.45.25.65.44l.43-.52c-.22-.24-.5-.43-.82-.57-.32-.15-.68-.22-1.06-.22-.29 0-.56.04-.8.13-.24.08-.45.2-.63.35a1.579 1.579 0 0 0-.45 1.82c.08.18.18.34.3.46.12.13.26.24.42.33.15.1.3.17.45.24l.91.4c.15.07.29.13.42.2.13.06.24.14.34.22.09.08.16.17.22.29.05.11.08.25.08.41 0 .31-.11.56-.35.75-.23.19-.56.29-.98.29-.33 0-.65-.07-.95-.22-.31-.15-.58-.34-.8-.58Zm5.16-4.97v6.36h3.76v-.69h-2.96v-2.31h2.42v-.69h-2.42v-1.99h2.86v-.68Zm5.92 3.01v-2.36h1.06c.5 0 .88.08 1.15.25.26.17.39.46.39.88s-.13.72-.39.93c-.27.2-.65.3-1.15.3Zm2.68 3.35h.91l-1.61-2.77c.44-.11.78-.32 1.04-.62.26-.29.39-.69.39-1.19 0-.33-.06-.61-.17-.83-.1-.23-.26-.41-.46-.56-.19-.14-.43-.24-.7-.3a4.29 4.29 0 0 0-.9-.09h-1.99v6.36h.81v-2.69h1.15Zm1.73 1.18.19.47c.4-.17.71-.41.93-.72.23-.31.34-.67.34-1.09 0-.3-.06-.53-.18-.69a.57.57 0 0 0-.49-.26c-.16 0-.3.05-.41.15-.12.1-.18.24-.18.42s.06.32.17.41c.12.09.25.14.41.14.04 0 .07 0 .09-.01 0 .27-.08.5-.23.7-.16.2-.37.36-.64.48Zm7.14-1.06c.4 0 .77-.08 1.1-.24.33-.15.62-.37.86-.66.25-.29.43-.64.57-1.05.13-.41.19-.87.19-1.38 0-.51-.06-.96-.19-1.36-.14-.41-.32-.75-.57-1.03-.24-.28-.53-.5-.86-.65-.33-.15-.7-.23-1.1-.23-.4 0-.77.07-1.1.22-.34.15-.62.37-.86.65s-.43.62-.56 1.03c-.13.4-.2.86-.2 1.37 0 .51.07.97.2 1.38.13.41.32.76.56 1.05.24.29.52.51.86.66.33.16.7.24 1.1.24Zm0-.71c-.29 0-.54-.06-.77-.19-.23-.12-.43-.3-.59-.52-.17-.23-.3-.51-.39-.83-.09-.32-.13-.68-.13-1.08s.04-.75.13-1.07c.09-.31.22-.58.39-.8.16-.22.36-.39.59-.51.23-.12.48-.18.77-.18a1.649 1.649 0 0 1 1.36.69c.17.22.29.49.38.8.1.32.14.67.14 1.07s-.04.76-.14 1.08c-.09.32-.21.6-.38.83-.16.22-.36.4-.59.52-.23.13-.49.19-.77.19Zm4.09-5.77v6.36h.77v-3.33c0-.33-.01-.67-.04-1-.02-.33-.04-.66-.07-.99h.04l.69 1.31 2.31 4.01h.83v-6.36h-.76v3.28c0 .34.01.68.03 1.03l.06 1h-.04l-.68-1.32-2.3-3.99Zm6.28 0v6.36h3.76v-.69h-2.96v-2.31h2.42v-.69h-2.42v-1.99h2.86v-.68Zm6.7 3.18c0 .52.07.98.21 1.39.14.41.33.76.58 1.04.25.28.54.49.88.64.34.15.71.23 1.12.23.4 0 .76-.08 1.08-.25.32-.16.6-.38.86-.68l-.46-.49c-.21.23-.43.4-.66.52-.23.13-.5.19-.81.19a1.738 1.738 0 0 1-1.43-.71c-.17-.23-.3-.5-.39-.82-.1-.32-.14-.68-.14-1.08s.04-.75.14-1.07c.1-.32.23-.59.41-.81.17-.22.38-.39.63-.51.24-.12.52-.18.82-.18.27 0 .51.05.72.16.2.11.39.25.55.43l.46-.51c-.19-.21-.43-.39-.72-.55-.29-.16-.63-.24-1.02-.24-.4 0-.78.08-1.13.23-.34.15-.64.37-.89.65-.26.29-.45.63-.6 1.04-.14.41-.21.87-.21 1.38Zm8.62.59h-1.92l.3-.97c.12-.36.23-.71.33-1.06.11-.35.21-.72.31-1.08h.03c.11.36.21.73.31 1.08.11.35.22.7.33 1.06Zm.2.65.6 1.94h.86l-2.15-6.36h-.91l-2.16 6.36h.83l.61-1.94Zm2.37-4.42v6.36h3.58v-.69h-2.78v-5.67Zm4.71 0v6.36h3.59v-.69h-2.78v-5.67Zm9.38 3.77h-1.91l.3-.97c.12-.36.23-.71.33-1.06.1-.35.2-.72.3-1.08h.04c.1.36.21.73.31 1.08.1.35.21.7.33 1.06Zm.2.65.61 1.94h.86l-2.15-6.36h-.92l-2.15 6.36h.82l.62-1.94Zm3.3-3.74v5.68h.82v-5.68h1.92v-.68h-4.66v.68Zm8.55 3.09h-1.91l.3-.97c.11-.36.22-.71.33-1.06.1-.35.2-.72.3-1.08h.04c.1.36.2.73.31 1.08.1.35.21.7.33 1.06Zm.2.65.6 1.94h.87l-2.16-6.36h-.91l-2.15 6.36h.82l.61-1.94Zm5.65-3.74v5.68h.81v-5.68h1.92v-.68h-4.65v.68Zm3.88-.68v6.36h.8v-6.36Zm2.55 0v6.36h.75v-3.5c0-.29-.02-.6-.04-.94-.03-.35-.05-.66-.07-.94h.04l.5 1.41 1.23 3.33h.46l1.22-3.33.52-1.41h.04c-.03.28-.05.59-.08.94-.02.34-.03.65-.03.94v3.5h.76v-6.36h-.95l-1.22 3.41-.44 1.3h-.04l-.47-1.3-1.23-3.41Zm7.05 0v6.36h3.76v-.69h-2.95v-2.31h2.41v-.69h-2.41v-1.99h2.86v-.68Z" data-gra="path-slogan" class="tp-slogan iconsvg-slogansvg"/>
    </g>
  </g>
</svg> 