<svg version="1.0" xmlns="http://www.w3.org/2000/svg" viewBox="0 0 340 250" color-interpolation-filters="sRGB" style="margin:auto">
  <g fill="#E5F1E7" class="icon-text-wrapper icon-svg-group iconsvg">
    <g transform="translate(46.9300003 92.10237885)" class="iconsvg-imagesvg">
      <path class="image-rect" fill="none" d="M0 0h60v65.7952452H0z"/>
      <svg width="60" height="65.7952452" class="image-svg-svg primary" style="overflow:visible">
        <svg xmlns="http://www.w3.org/2000/svg" viewBox="2.4e-7 0.02746544 91.19999695 100.00904846">
          <path d="M37.72 70.18a23.47 23.47 0 0 1-8.32-8l-.09-.18-.1-.17-.06-.1-.15-.2a.56.56 0 0 0-.05-.08l-.13-.24-.05-.09-.12-.22c-.12-.21-.23-.42-.34-.63v-.08l-.34-.67a38.63 38.63 0 0 1-3.5-10.57l-.12-.7a.77.77 0 0 1 0-.15c0-.18-.06-.36-.08-.54v-.22c0-.18 0-.35-.07-.53V42.8a39.24 39.24 0 0 1 8-24.32l.31-.39.26-.33a38.72 38.72 0 0 1 4.82-5l.21-.17.11-.1.31-.26.06-.05.38-.31a40.64 40.64 0 0 1 5-3.43 39.19 39.19 0 0 1 9.44-3.92l.94-.24A39.31 39.31 0 0 1 58 3.31l.52-.06h8.3A49.84 49.84 0 0 0 6.3 24.48a.83.83 0 0 1 0 .15v.14l-.17.23-.13.16c-.15.25-.29.51-.43.77a34 34 0 0 0 13 45.95l.45.26.15.08.3.16.19.11.25.13a34.2 34.2 0 0 0 30.29.59h-.94a23.35 23.35 0 0 1-11.54-3.03z" fill="#E5F1E7"/>
          <path d="m90.93 22.54-.09-.13-.29-.4-.29-.4-.09-.11-.17-.3-.09-.12-.24-.31-.07-.08c-.21-.27-.42-.53-.64-.78l-.07-.08-.26-.31-.08-.08-.29-.33c-.23-.26-.46-.51-.7-.75v-.05c-.1-.11-.2-.22-.31-.32v-.05c-.37-.37-.74-.72-1.11-1.07l-.36-.32c-.39-.35-.78-.68-1.19-1l-.4-.31a34.47 34.47 0 0 0-8.53-4.87c-.64-.25-1.28-.48-1.93-.69-.48-.16-1-.31-1.45-.44L71.5 9h-.06L71 8.85l-1-.22h-.07l-.41-.08h-.09L69 8.42l-1-.16h-.1l-.38-.05h-.12l-.4-.1h-.1L66.41 8h-6.93l-.48.06h-1.16l-.48.08h-.08l-.41.07h-.16l-.34.06h-.16l-.45.09h-.08l-.43.1h-.17l-.33.07h-.17l-.39.1h-.1l-.47.13-.16.05-.33.09-.13.4-.36.11h-.12L52 9.6l-.15.05-.33.12-.17.06L51 10h-.13l-.46.18-.13.05-.35.14-.16.07-.35.14-.13.06-.46.21h-.1l-.37.17-.15.07-.35.17-.13.06-.46.23h-.05c-.14.07-.28.14-.41.22l-.15.07-.33.18-.14.08-.45.26-.27.16-.14.08c-.67.4-1.32.82-2 1.26l-.18.13-.15.1a34.36 34.36 0 0 0-14.12 24.39 23.62 23.62 0 0 1 3.87-5.09 23.33 23.33 0 0 1 35.39 2.81l23-13.3-.05-.07c-.03-.1-.09-.2-.16-.29zM62 71l-.51.46-.1.09L61 72l-.18.15-.4.33-.26.21-.35.28-.34.26-.23.18h-.07l-.09.07-.53.39-.58.42h-.06A38.67 38.67 0 0 1 47 79.61l-.17.06-.59.17h-.2l-.24.07-.2.05-.22.06-.59.14h-.16a38.68 38.68 0 0 1-12.17.91h-.23c-.77-.07-1.55-.16-2.32-.27a38.83 38.83 0 0 1-12.29-4l-.64-.34-.11-.07-.63-.35-.61-.36-.12-.07-.57-.36-.11-.06-.54-.35h-.06l-.57-.38-.11-.08-.65-.38h-.07l-.52-.38-.08-.06-.54-.41-.1-.08-.59-.52-.53-.44-.1-.08-.51-.44-.08-.07-.5-.45-.5-.47-.09-.09L8.2 70l-.46-.47-.06-.06-.52-.47-.08-.09-.47-.51c-.16-.17-.31-.34-.46-.52l-.07-.08c-.15-.17-.3-.34-.44-.52l-.07-.08-.43-.53c-.14-.18-.29-.36-.43-.55L4.63 66l-.41-.55v-.06l-.39-.53v-.06l-.39-.56-.07-.1-.38-.58c-.13-.18-.24-.37-.36-.56l-.06-.09-.35-.58-.06-.1-.34-.59-.43-.64-.07-.11-.32-.65v-.09l-.28-.56v-.09c-.1-.2-.2-.4-.29-.6l-.06-.13-.37-.61a49.9 49.9 0 0 0 91.2 19l-23-13.29A39.05 39.05 0 0 1 62.06 71z" fill="#39B54A"/>
        </svg>
      </svg>
    </g>
    <path d="M129.85000032 130.69499958v3.84q-6.34.56-10.52.56-2.79 0-4.09-1.3-1.31-1.31-1.31-4.1v-9.1q0-2.98 1.35-4.33 1.35-1.36 4.33-1.36h10.24v3.99h-9.1q-1.7 0-1.7 1.7v9.1q0 .66.38 1.04t.98.38q.6 0 1.31-.01.71-.02 1.48-.04.77-.03 1.55-.06t2.02-.11q1.23-.09 3.08-.2Zm17.35-6.69v6.54q0 2.14-1.21 3.35-1.21 1.2-3.34 1.2h-6.54q-2.14 0-3.34-1.2-1.21-1.21-1.21-3.35v-6.54q0-2.13 1.21-3.34 1.2-1.21 3.34-1.21h6.54q2.13 0 3.34 1.21t1.21 3.34Zm-4.98 6.12v-5.69q0-1.14-1.14-1.14h-3.41q-1.14 0-1.14 1.14v5.69q0 1.14 1.14 1.14h3.41q1.14 0 1.14-1.14Zm16.92-6.54h-.99q-1.51 0-3.42.57v10.66h-4.97v-15.07h4.4l.29 1.42q1.34-.88 2.74-1.29 1.41-.42 2.38-.42h1.28q1.93 0 3.1 1.17 1.16 1.17 1.16 3.1v11.09h-4.97v-10.24q0-.42-.29-.71-.28-.28-.71-.28Zm17.92 0h-1q-1.51 0-3.41.57v10.66h-4.98v-15.07h4.41l.28 1.42q1.34-.88 2.75-1.29 1.41-.42 2.37-.42h1.28q1.94 0 3.1 1.17 1.17 1.17 1.17 3.1v11.09h-4.98v-10.24q0-.42-.28-.71-.29-.28-.71-.28Zm16.91-.57h-2.55q-1.14 0-1.14 1.14v1.56h4.83v-1.56q0-1.14-1.14-1.14Zm5.55 7.96v3.56q-5.49.56-9.95.56-1.94 0-3.1-1.16-1.17-1.17-1.17-3.1v-6.83q0-2.13 1.21-3.34t3.34-1.21h5.69q2.13 0 3.34 1.21t1.21 3.34v5.26h-9.81v1.14q0 .43.28.71.29.29.71.29 2.82 0 8.25-.43Zm16.49-.14v3.7q-5.31.56-9.38.56-1.93 0-3.1-1.16-1.17-1.17-1.17-3.1v-6.54q0-2.13 1.21-3.34t3.34-1.21h9.1v3.84h-7.53q-1.14 0-1.14 1.14v5.54q0 .43.28.71.29.29.72.29 2.55 0 7.67-.43Zm12.8.28v3.7q-2.76.28-5.4.28-1.94 0-3.1-1.16-1.17-1.17-1.17-3.1v-7.25h-1.71v-3.84h1.71l.57-3.41h4.41v3.41h3.55v3.84h-3.55v6.54q0 .42.28.71.29.28.71.28h3.7Zm19.62-16.21v19.91h-5.4l-6.83-11.94v11.94h-5.12v-19.91h5.41l6.82 11.95v-11.95h5.12Zm18.48 9.1v6.54q0 2.14-1.21 3.35-1.2 1.2-3.34 1.2h-6.54q-2.13 0-3.34-1.2-1.21-1.21-1.21-3.35v-6.54q0-2.13 1.21-3.34t3.34-1.21h6.54q2.14 0 3.34 1.21 1.21 1.21 1.21 3.34Zm-4.97 6.12v-5.69q0-1.14-1.14-1.14h-3.41q-1.14 0-1.14 1.14v5.69q0 1.14 1.14 1.14h3.41q1.14 0 1.14-1.14Zm20.61-10.38 2.56 9.1 2.56-9.1h5.4l-4.69 15.07h-5.26l-2.84-9.1-2.85 9.1h-5.26l-4.69-15.07h5.4l2.56 9.1 2.56-9.1h4.55Z" data-gra="path-name" class="tp-name iconsvg-namesvg"/>
  </g>
</svg>